<svg width="125" height="284" viewBox="0 0 125 284" fill="none" xmlns="http://www.w3.org/2000/svg">
<path opacity="0.02" d="M124.505 8.79999C115.438 9.33332 108.905 10.4 104.905 12C100.905 13.6 98.1047 16.6667 96.5047 21.2C95.1714 25.7333 94.5047 33.0666 94.5047 43.2V241.6C94.5047 251.733 95.1714 259.067 96.5047 263.6C98.1047 268.133 100.905 271.2 104.905 272.8C108.905 274.4 115.438 275.467 124.505 276V284C110.105 283.2 89.9714 282.8 64.1047 282.8C35.5714 282.8 14.5047 283.2 0.904688 284V276C9.70469 275.467 16.1047 274.4 20.1047 272.8C24.3714 271.2 27.1714 268.133 28.5047 263.6C30.1047 259.067 30.9047 251.733 30.9047 241.6V43.2C30.9047 33.0666 30.1047 25.7333 28.5047 21.2C27.1714 16.6667 24.3714 13.6 20.1047 12C16.1047 10.4 9.70469 9.33332 0.904688 8.79999V0.799998C14.5047 1.59999 35.5714 1.99998 64.1047 1.99998C89.9714 1.99998 110.105 1.59999 124.505 0.799998V8.79999Z" fill="white"/>
</svg>
